<svg width="41" height="41" viewBox="0 0 41 41" fill="none" xmlns="http://www.w3.org/2000/svg">
<path d="M40.5 20.5C40.5 31.5457 31.5457 40.5 20.5 40.5C9.4543 40.5 0.5 31.5457 0.5 20.5C0.5 9.4543 9.4543 0.5 20.5 0.5C31.5457 0.5 40.5 9.4543 40.5 20.5Z" stroke="#DADADA"/>
<path d="M20.5 21C22.0188 21 23.25 19.6569 23.25 18C23.25 16.3431 22.0188 15 20.5 15C18.9812 15 17.75 16.3431 17.75 18C17.75 19.6569 18.9812 21 20.5 21Z" fill="#949494"/>
<path d="M26 26.25H15C15 23.76 16.92 21.75 19.28 21.75H21.72C24.08 21.75 26 23.76 26 26.25Z" fill="#949494"/>
</svg>
