<svg width="41" height="41" viewBox="0 0 41 41" fill="none" xmlns="http://www.w3.org/2000/svg">
<path d="M40.5 20.5C40.5 31.5457 31.5457 40.5 20.5 40.5C9.4543 40.5 0.5 31.5457 0.5 20.5C0.5 9.4543 9.4543 0.5 20.5 0.5C31.5457 0.5 40.5 9.4543 40.5 20.5Z" fill="white" stroke="#999999"/>
<rect x="15" y="14" width="11" height="13" fill="#444444"/>
<circle cx="26" cy="14" r="2" fill="#E54243"/>
<rect x="20" y="17" width="3" height="1" fill="#F9F3F0"/>
<rect x="18" y="17" width="1" height="1" fill="#F9F3F0"/>
<rect x="20" y="19" width="3" height="1" fill="#F9F3F0"/>
<rect x="18" y="19" width="1" height="1" fill="#F9F3F0"/>
<rect x="20" y="21" width="3" height="1" fill="#F9F3F0"/>
<rect x="18" y="21" width="1" height="1" fill="#F9F3F0"/>
<rect x="20" y="23" width="3" height="1" fill="#F9F3F0"/>
<rect x="18" y="23" width="1" height="1" fill="#F9F3F0"/>
</svg>
