<svg width="41" height="41" viewBox="0 0 41 41" fill="none" xmlns="http://www.w3.org/2000/svg">
<path d="M40.5 20.5C40.5 31.5457 31.5457 40.5 20.5 40.5C9.4543 40.5 0.5 31.5457 0.5 20.5C0.5 9.4543 9.4543 0.5 20.5 0.5C31.5457 0.5 40.5 9.4543 40.5 20.5Z" stroke="#DADADA"/>
<path d="M26.8592 18.7775C26.4042 18.5717 25.9275 18.3875 25.5483 18.1708C25.245 18.0083 25.0067 17.8242 24.8875 17.6183C24.7575 17.4017 24.725 17.0983 24.725 16.7517C24.725 16.3183 24.79 15.8092 24.8442 15.3217C24.1725 14.7367 23.4033 14.2817 22.5583 14C22.1575 14.2925 21.7458 14.5958 21.3558 14.8125C21.0525 14.9858 20.76 15.0942 20.5 15.0942C20.24 15.0942 19.9475 14.9858 19.6442 14.8125C19.2542 14.5958 18.8425 14.2925 18.4417 14C17.5967 14.2817 16.8275 14.7367 16.1667 15.3108C16.2208 15.7983 16.2858 16.3075 16.2858 16.7408C16.2858 17.0875 16.2425 17.3908 16.1233 17.6075C16.0042 17.8133 15.755 17.9975 15.4625 18.16C15.0833 18.3767 14.6067 18.5717 14.1517 18.7667C14.0542 19.2108 14 19.655 14 20.1208C14 20.5867 14.0542 21.0308 14.1408 21.4642C14.5958 21.67 15.0725 21.8542 15.4517 22.0708C15.755 22.2333 15.9933 22.4175 16.1125 22.6233C16.2425 22.84 16.275 23.1433 16.275 23.49C16.275 23.9233 16.21 24.4325 16.1558 24.92C16.8058 25.505 17.575 25.9492 18.4308 26.2308C18.8317 25.9383 19.2433 25.635 19.6333 25.4183C19.9367 25.245 20.2292 25.1367 20.4892 25.1367C20.7492 25.1367 21.0417 25.2558 21.345 25.4183C21.735 25.635 22.1467 25.9383 22.5475 26.2308C23.4033 25.9492 24.1725 25.4942 24.8225 24.92C24.7792 24.4325 24.7142 23.9233 24.7142 23.49C24.7142 23.1433 24.7575 22.84 24.8767 22.6233C24.9958 22.4175 25.245 22.2333 25.5375 22.0708C25.9167 21.8542 26.3933 21.6592 26.8483 21.4642C26.9458 21.0308 27 20.5758 27 20.1208C27 19.655 26.9458 19.2108 26.8592 18.7775ZM20.5 22.1033C19.4058 22.1033 18.5175 21.215 18.5175 20.1208C18.5175 19.0267 19.4058 18.1383 20.5 18.1383C21.5942 18.1383 22.4825 19.0267 22.4825 20.1208C22.4825 21.215 21.5942 22.1033 20.5 22.1033Z" fill="#949494"/>
</svg>
